<svg width="16" height="16" viewBox="0 0 16 16" fill="none" xmlns="http://www.w3.org/2000/svg">
<g clip-path="url(#clip0_327_2490)">
<path d="M7.99967 14.6663C11.6816 14.6663 14.6663 11.6816 14.6663 7.99967C14.6663 4.31778 11.6816 1.33301 7.99967 1.33301C4.31778 1.33301 1.33301 4.31778 1.33301 7.99967C1.33301 11.6816 4.31778 14.6663 7.99967 14.6663Z" stroke="#D1D5DB" stroke-width="2" stroke-linecap="round" stroke-linejoin="round"/>
<path d="M9.99953 6.23567C9.64123 5.82948 9.16774 5.54201 8.64205 5.41154C8.11637 5.28106 7.56341 5.31376 7.05676 5.50528C6.55011 5.69679 6.1138 6.03805 5.80587 6.48365C5.49794 6.92924 5.33301 7.45804 5.33301 7.99967C5.33301 8.54131 5.49794 9.07011 5.80587 9.5157C6.1138 9.9613 6.55011 10.3026 7.05676 10.4941C7.56341 10.6856 8.11637 10.7183 8.64205 10.5878C9.16774 10.4573 9.64123 10.1699 9.99953 9.76367" stroke="#D1D5DB" stroke-width="2" stroke-linecap="round" stroke-linejoin="round"/>
</g>
<defs>
<clipPath id="clip0_327_2490">
<rect width="16" height="16" fill="white"/>
</clipPath>
</defs>
</svg>
