<svg width="36" height="36" viewBox="0 0 36 36" fill="none" xmlns="http://www.w3.org/2000/svg">
<path d="M11 11.5C11 10.5717 11.3687 9.6815 12.0251 9.02513C12.6815 8.36875 13.5717 8 14.5 8H18V15H14.5C13.5717 15 12.6815 14.6313 12.0251 13.9749C11.3687 13.3185 11 12.4283 11 11.5Z" stroke="#4B5563" stroke-width="2" stroke-linecap="round" stroke-linejoin="round"/>
<path d="M18 8H21.5C21.9596 8 22.4148 8.09053 22.8394 8.26642C23.264 8.44231 23.6499 8.70012 23.9749 9.02513C24.2999 9.35013 24.5577 9.73597 24.7336 10.1606C24.9095 10.5852 25 11.0404 25 11.5C25 11.9596 24.9095 12.4148 24.7336 12.8394C24.5577 13.264 24.2999 13.6499 23.9749 13.9749C23.6499 14.2999 23.264 14.5577 22.8394 14.7336C22.4148 14.9095 21.9596 15 21.5 15H18V8Z" stroke="#4B5563" stroke-width="2" stroke-linecap="round" stroke-linejoin="round"/>
<path d="M18 18.5C18 18.0404 18.0905 17.5852 18.2664 17.1606C18.4423 16.736 18.7001 16.3501 19.0251 16.0251C19.3501 15.7001 19.736 15.4423 20.1606 15.2664C20.5852 15.0905 21.0404 15 21.5 15C21.9596 15 22.4148 15.0905 22.8394 15.2664C23.264 15.4423 23.6499 15.7001 23.9749 16.0251C24.2999 16.3501 24.5577 16.736 24.7336 17.1606C24.9095 17.5852 25 18.0404 25 18.5C25 18.9596 24.9095 19.4148 24.7336 19.8394C24.5577 20.264 24.2999 20.6499 23.9749 20.9749C23.6499 21.2999 23.264 21.5577 22.8394 21.7336C22.4148 21.9095 21.9596 22 21.5 22C21.0404 22 20.5852 21.9095 20.1606 21.7336C19.736 21.5577 19.3501 21.2999 19.0251 20.9749C18.7001 20.6499 18.4423 20.264 18.2664 19.8394C18.0905 19.4148 18 18.9596 18 18.5Z" stroke="#4B5563" stroke-width="2" stroke-linecap="round" stroke-linejoin="round"/>
<path d="M11 25.5C11 24.5717 11.3687 23.6815 12.0251 23.0251C12.6815 22.3687 13.5717 22 14.5 22H18V25.5C18 26.4283 17.6313 27.3185 16.9749 27.9749C16.3185 28.6313 15.4283 29 14.5 29C13.5717 29 12.6815 28.6313 12.0251 27.9749C11.3687 27.3185 11 26.4283 11 25.5Z" stroke="#4B5563" stroke-width="2" stroke-linecap="round" stroke-linejoin="round"/>
<path d="M11 18.5C11 17.5717 11.3687 16.6815 12.0251 16.0251C12.6815 15.3687 13.5717 15 14.5 15H18V22H14.5C13.5717 22 12.6815 21.6313 12.0251 20.9749C11.3687 20.3185 11 19.4283 11 18.5Z" stroke="#4B5563" stroke-width="2" stroke-linecap="round" stroke-linejoin="round"/>
</svg>
