<svg width="36" height="36" viewBox="0 0 36 36" fill="none" xmlns="http://www.w3.org/2000/svg">
<path d="M21 28V24C21.1392 22.7473 20.78 21.4901 20 20.5C23 20.5 26 18.5 26 15C26.08 13.75 25.73 12.52 25 11.5C25.28 10.35 25.28 9.15 25 8C25 8 24 8 22 9.5C19.36 9 16.64 9 14 9.5C12 8 11 8 11 8C10.7 9.15 10.7 10.35 11 11.5C10.2719 12.5159 9.91851 13.7528 10 15C10 18.5 13 20.5 16 20.5C15.61 20.99 15.32 21.55 15.15 22.15C14.98 22.75 14.93 23.38 15 24V28" stroke="#4B5563" stroke-width="2" stroke-linecap="round" stroke-linejoin="round"/>
<path d="M15 24C10.49 26 10 22 8 22" stroke="#4B5563" stroke-width="2" stroke-linecap="round" stroke-linejoin="round"/>
</svg>
