<svg width="40" height="40" viewBox="0 0 41 40" fill="none" xmlns="http://www.w3.org/2000/svg">
<path fill-rule="evenodd" clip-rule="evenodd" d="M13 10C13 8.01088 13.7902 6.10322 15.1967 4.6967C16.6032 3.29018 18.5109 2.5 20.5 2.5C22.4891 2.5 24.3968 3.29018 25.8033 4.6967C27.2098 6.10322 28 8.01088 28 10C28 11.9891 27.2098 13.8968 25.8033 15.3033C24.3968 16.7098 22.4891 17.5 20.5 17.5C18.5109 17.5 16.6032 16.7098 15.1967 15.3033C13.7902 13.8968 13 11.9891 13 10ZM6.75166 33.5083C6.80786 29.8991 8.28107 26.4568 10.8533 23.9243C13.4255 21.3918 16.8904 19.9724 20.5 19.9724C24.1096 19.9724 27.5745 21.3918 30.1467 23.9243C32.7189 26.4568 34.1921 29.8991 34.2483 33.5083C34.2527 33.7513 34.1861 33.9903 34.0567 34.196C33.9274 34.4017 33.7409 34.5653 33.52 34.6667C29.4353 36.5395 24.9936 37.5061 20.5 37.5C15.8567 37.5 11.445 36.4867 7.48 34.6667C7.25914 34.5653 7.07262 34.4017 6.94327 34.196C6.81391 33.9903 6.74733 33.7513 6.75166 33.5083Z" fill="black"/>
</svg>
